<?xml version="1.0" encoding="UTF-8" standalone="no"?>
<!DOCTYPE svg PUBLIC "-//W3C//DTD SVG 1.1//EN"
 "http://www.w3.org/Graphics/SVG/1.1/DTD/svg11.dtd">
<!-- Generated by graphviz version 14.1.2 (0)
 -->
<!-- Title: prompt_lifecycle Pages: 1 -->
<svg width="892pt" height="746pt"
 viewBox="0.00 0.00 892.00 746.00" xmlns="http://www.w3.org/2000/svg" xmlns:xlink="http://www.w3.org/1999/xlink">
<g id="graph0" class="graph" transform="scale(1 1) rotate(0) translate(4 742.36)">
<title>prompt_lifecycle</title>
<polygon fill="white" stroke="none" points="-4,4 -4,-742.36 888.31,-742.36 888.31,4 -4,4"/>
<!-- start -->
<g id="node1" class="node">
<title>start</title>
<polygon fill="#f2931e" stroke="#d67c00" stroke-width="1.8" points="565.81,-738.36 381.12,-738.36 381.12,-671.82 565.81,-671.82 565.81,-738.36"/>
<text xml:space="preserve" text-anchor="middle" x="473.47" y="-709.74" font-family="Helvetica,sans-Serif" font-weight="bold" font-size="18.00" fill="white">SessionStart</text>
<text xml:space="preserve" text-anchor="middle" x="473.47" y="-687.99" font-family="Helvetica,sans-Serif" font-weight="bold" font-size="18.00" fill="white">session&#45;start.js</text>
</g>
<!-- prompt -->
<g id="node2" class="node">
<title>prompt</title>
<polygon fill="#4f86c6" stroke="#3a6ba5" stroke-width="1.8" points="619.06,-609.82 327.88,-609.82 327.88,-543.28 619.06,-543.28 619.06,-609.82"/>
<text xml:space="preserve" text-anchor="middle" x="473.47" y="-581.2" font-family="Helvetica,sans-Serif" font-weight="bold" font-size="18.00" fill="white">Developer prompt</text>
<text xml:space="preserve" text-anchor="middle" x="473.47" y="-559.45" font-family="Helvetica,sans-Serif" font-weight="bold" font-size="18.00" fill="white">user&#45;prompt&#45;dispatcher.js</text>
</g>
<!-- start&#45;&gt;prompt -->
<g id="edge1" class="edge">
<title>start&#45;&gt;prompt</title>
<path fill="none" stroke="#2f2f2f" stroke-width="2" d="M473.47,-671.17C473.47,-656.38 473.47,-638.69 473.47,-622.69"/>
<polygon fill="#2f2f2f" stroke="#2f2f2f" stroke-width="2" points="476.79,-622.83 473.47,-613.33 470.14,-622.83 476.79,-622.83"/>
<text xml:space="preserve" text-anchor="middle" x="537.59" y="-635.57" font-family="Helvetica,sans-Serif" font-size="15.00" fill="#555555">sync rules (once)</text>
</g>
<!-- ctx -->
<g id="node3" class="node">
<title>ctx</title>
<polygon fill="#e1d5f7" stroke="#9673a6" stroke-width="1.8" points="355.81,-498.28 135.13,-498.28 135.13,-447.88 355.81,-447.88 355.81,-498.28"/>
<text xml:space="preserve" text-anchor="middle" x="245.47" y="-466.85" font-family="Helvetica,sans-Serif" font-weight="bold" font-size="18.00" fill="#4b2e83">inject&#45;context&#45;impl</text>
</g>
<!-- prompt&#45;&gt;ctx -->
<g id="edge2" class="edge">
<title>prompt&#45;&gt;ctx</title>
<path fill="none" stroke="#2f2f2f" stroke-width="2" d="M399.12,-542.47C371.38,-530.12 340.06,-516.18 312.96,-504.12"/>
<polygon fill="#2f2f2f" stroke="#2f2f2f" stroke-width="2" points="314.43,-501.13 304.4,-500.31 311.72,-507.21 314.43,-501.13"/>
</g>
<!-- rules -->
<g id="node4" class="node">
<title>rules</title>
<polygon fill="#e1d5f7" stroke="#9673a6" stroke-width="1.8" points="571.43,-498.28 375.5,-498.28 375.5,-447.88 571.43,-447.88 571.43,-498.28"/>
<text xml:space="preserve" text-anchor="middle" x="473.47" y="-466.85" font-family="Helvetica,sans-Serif" font-weight="bold" font-size="18.00" fill="#4b2e83">inject&#45;rules&#45;impl</text>
</g>
<!-- prompt&#45;&gt;rules -->
<g id="edge3" class="edge">
<title>prompt&#45;&gt;rules</title>
<path fill="none" stroke="#2f2f2f" stroke-width="2" d="M473.47,-542.61C473.47,-532.68 473.47,-521.71 473.47,-511.51"/>
<polygon fill="#2f2f2f" stroke="#2f2f2f" stroke-width="2" points="476.79,-511.67 473.47,-502.17 470.14,-511.67 476.79,-511.67"/>
</g>
<!-- budget -->
<g id="node5" class="node">
<title>budget</title>
<polygon fill="#e1d5f7" stroke="#9673a6" stroke-width="1.8" points="827.68,-498.28 591.25,-498.28 591.25,-447.88 827.68,-447.88 827.68,-498.28"/>
<text xml:space="preserve" text-anchor="middle" x="709.47" y="-466.85" font-family="Helvetica,sans-Serif" font-weight="bold" font-size="18.00" fill="#4b2e83">context&#45;budget&#45;impl</text>
</g>
<!-- prompt&#45;&gt;budget -->
<g id="edge4" class="edge">
<title>prompt&#45;&gt;budget</title>
<path fill="none" stroke="#2f2f2f" stroke-width="2" d="M550.41,-542.47C579.26,-530.06 611.85,-516.05 639.98,-503.96"/>
<polygon fill="#2f2f2f" stroke="#2f2f2f" stroke-width="2" points="641.13,-507.08 648.55,-500.27 638.51,-500.97 641.13,-507.08"/>
</g>
<!-- claude -->
<g id="node6" class="node">
<title>claude</title>
<polygon fill="#7b61ff" stroke="#5e45d8" stroke-width="1.8" points="572.93,-402.88 374,-402.88 374,-352.48 572.93,-352.48 572.93,-402.88"/>
<text xml:space="preserve" text-anchor="middle" x="473.47" y="-371.45" font-family="Helvetica,sans-Serif" font-weight="bold" font-size="18.00" fill="white">Claude responds</text>
</g>
<!-- ctx&#45;&gt;claude -->
<g id="edge5" class="edge">
<title>ctx&#45;&gt;claude</title>
<path fill="none" stroke="#2f2f2f" stroke-width="2" d="M306.56,-447.05C335.57,-435.17 370.45,-420.88 400.81,-408.44"/>
<polygon fill="#2f2f2f" stroke="#2f2f2f" stroke-width="2" points="401.86,-411.6 409.4,-404.93 399.34,-405.45 401.86,-411.6"/>
</g>
<!-- rules&#45;&gt;claude -->
<g id="edge6" class="edge">
<title>rules&#45;&gt;claude</title>
<path fill="none" stroke="#2f2f2f" stroke-width="2" d="M473.47,-447.05C473.47,-437.52 473.47,-426.45 473.47,-416.03"/>
<polygon fill="#2f2f2f" stroke="#2f2f2f" stroke-width="2" points="476.79,-416.31 473.47,-406.81 470.14,-416.31 476.79,-416.31"/>
</g>
<!-- budget&#45;&gt;claude -->
<g id="edge7" class="edge">
<title>budget&#45;&gt;claude</title>
<path fill="none" stroke="#2f2f2f" stroke-width="2" d="M646.22,-447.05C616.06,-435.12 579.78,-420.75 548.26,-408.28"/>
<polygon fill="#2f2f2f" stroke="#2f2f2f" stroke-width="2" points="549.75,-405.3 539.7,-404.89 547.31,-411.48 549.75,-405.3"/>
</g>
<!-- pre -->
<g id="node7" class="node">
<title>pre</title>
<polygon fill="#e8453c" stroke="#c5352d" stroke-width="1.8" points="263.06,-290.48 85.88,-290.48 85.88,-223.94 263.06,-223.94 263.06,-290.48"/>
<text xml:space="preserve" text-anchor="middle" x="174.47" y="-261.86" font-family="Helvetica,sans-Serif" font-weight="bold" font-size="18.00" fill="white">PreToolUse</text>
<text xml:space="preserve" text-anchor="middle" x="174.47" y="-240.11" font-family="Helvetica,sans-Serif" font-weight="bold" font-size="18.00" fill="white">pre&#45;tool&#45;use.js</text>
</g>
<!-- claude&#45;&gt;pre -->
<g id="edge8" class="edge">
<title>claude&#45;&gt;pre</title>
<path fill="none" stroke="#2f2f2f" stroke-width="2" d="M409.86,-351.66C392.46,-344.8 373.61,-337.36 356.22,-330.48 327.91,-319.28 297.14,-307.06 269.1,-295.91"/>
<polygon fill="#2f2f2f" stroke="#2f2f2f" stroke-width="2" points="270.55,-292.9 260.5,-292.48 268.1,-299.08 270.55,-292.9"/>
<text xml:space="preserve" text-anchor="middle" x="385.84" y="-316.23" font-family="Helvetica,sans-Serif" font-size="15.00" fill="#555555">tool use</text>
</g>
<!-- precomp -->
<g id="node8" class="node">
<title>precomp</title>
<polygon fill="#647687" stroke="#4e5d6b" stroke-width="1.8" points="463.93,-290.48 283,-290.48 283,-223.94 463.93,-223.94 463.93,-290.48"/>
<text xml:space="preserve" text-anchor="middle" x="373.47" y="-261.86" font-family="Helvetica,sans-Serif" font-weight="bold" font-size="18.00" fill="white">PreCompact</text>
<text xml:space="preserve" text-anchor="middle" x="373.47" y="-240.11" font-family="Helvetica,sans-Serif" font-weight="bold" font-size="18.00" fill="white">pre&#45;compact.js</text>
</g>
<!-- claude&#45;&gt;precomp -->
<g id="edge9" class="edge">
<title>claude&#45;&gt;precomp</title>
<path fill="none" stroke="#2f2f2f" stroke-width="2" d="M452.5,-351.84C439.94,-336.96 423.63,-317.64 409.09,-300.42"/>
<polygon fill="#2f2f2f" stroke="#2f2f2f" stroke-width="2" points="411.86,-298.54 403.19,-293.42 406.77,-302.83 411.86,-298.54"/>
<text xml:space="preserve" text-anchor="middle" x="476.3" y="-316.23" font-family="Helvetica,sans-Serif" font-size="15.00" fill="#555555">compaction</text>
</g>
<!-- stop -->
<g id="node9" class="node">
<title>stop</title>
<polygon fill="#647687" stroke="#4e5d6b" stroke-width="1.8" points="664.56,-290.48 484.38,-290.48 484.38,-223.94 664.56,-223.94 664.56,-290.48"/>
<text xml:space="preserve" text-anchor="middle" x="574.47" y="-261.86" font-family="Helvetica,sans-Serif" font-weight="bold" font-size="18.00" fill="white">Stop</text>
<text xml:space="preserve" text-anchor="middle" x="574.47" y="-240.11" font-family="Helvetica,sans-Serif" font-weight="bold" font-size="18.00" fill="white">session&#45;stop.js</text>
</g>
<!-- claude&#45;&gt;stop -->
<g id="edge10" class="edge">
<title>claude&#45;&gt;stop</title>
<path fill="none" stroke="#2f2f2f" stroke-width="2" d="M504.1,-351.74C511.44,-345.16 519.01,-337.83 525.47,-330.48 533.33,-321.51 540.99,-311.23 547.82,-301.29"/>
<polygon fill="#2f2f2f" stroke="#2f2f2f" stroke-width="2" points="550.42,-303.39 552.94,-293.64 544.9,-299.69 550.42,-303.39"/>
<text xml:space="preserve" text-anchor="middle" x="582.82" y="-316.23" font-family="Helvetica,sans-Serif" font-size="15.00" fill="#555555">session end</text>
</g>
<!-- substop -->
<g id="node10" class="node">
<title>substop</title>
<polygon fill="#647687" stroke="#4e5d6b" stroke-width="1.8" points="884.31,-290.48 684.62,-290.48 684.62,-223.94 884.31,-223.94 884.31,-290.48"/>
<text xml:space="preserve" text-anchor="middle" x="784.47" y="-261.86" font-family="Helvetica,sans-Serif" font-weight="bold" font-size="18.00" fill="white">SubagentStop</text>
<text xml:space="preserve" text-anchor="middle" x="784.47" y="-240.11" font-family="Helvetica,sans-Serif" font-weight="bold" font-size="18.00" fill="white">subagent&#45;stop.js</text>
</g>
<!-- claude&#45;&gt;substop -->
<g id="edge11" class="edge">
<title>claude&#45;&gt;substop</title>
<path fill="none" stroke="#2f2f2f" stroke-width="2" d="M568.26,-351.59C589.28,-345.3 611.29,-338.14 631.47,-330.48 657.31,-320.67 684.82,-308.31 709.29,-296.59"/>
<polygon fill="#2f2f2f" stroke="#2f2f2f" stroke-width="2" points="710.47,-299.72 717.57,-292.59 707.57,-293.73 710.47,-299.72"/>
<text xml:space="preserve" text-anchor="middle" x="717.12" y="-316.23" font-family="Helvetica,sans-Serif" font-size="15.00" fill="#555555">agent done</text>
</g>
<!-- tool -->
<g id="node11" class="node">
<title>tool</title>
<polygon fill="#4caf50" stroke="#3c9140" stroke-width="1.8" points="176.81,-161.94 10.13,-161.94 10.13,-111.54 176.81,-111.54 176.81,-161.94"/>
<text xml:space="preserve" text-anchor="middle" x="93.47" y="-130.52" font-family="Helvetica,sans-Serif" font-weight="bold" font-size="18.00" fill="white">Tool executes</text>
</g>
<!-- pre&#45;&gt;tool -->
<g id="edge12" class="edge">
<title>pre&#45;&gt;tool</title>
<path fill="none" stroke="#2f2f2f" stroke-width="2" d="M151.9,-223.21C141.15,-207.48 128.28,-188.67 117.37,-172.7"/>
<polygon fill="#2f2f2f" stroke="#2f2f2f" stroke-width="2" points="120.33,-171.14 112.22,-165.17 114.84,-174.89 120.33,-171.14"/>
<text xml:space="preserve" text-anchor="middle" x="165.27" y="-187.69" font-family="Helvetica,sans-Serif" font-size="15.00" fill="#555555">allowed</text>
</g>
<!-- reject -->
<g id="node12" class="node">
<title>reject</title>
<polygon fill="#e8453c" stroke="#c5352d" stroke-width="1.8" points="315.81,-161.94 197.13,-161.94 197.13,-111.54 315.81,-111.54 315.81,-161.94"/>
<text xml:space="preserve" text-anchor="middle" x="256.47" y="-130.52" font-family="Helvetica,sans-Serif" font-weight="bold" font-size="18.00" fill="white">Rejected</text>
</g>
<!-- pre&#45;&gt;reject -->
<g id="edge13" class="edge">
<title>pre&#45;&gt;reject</title>
<path fill="none" stroke="#2f2f2f" stroke-width="2" d="M197.31,-223.21C208.19,-207.48 221.22,-188.67 232.27,-172.7"/>
<polygon fill="#2f2f2f" stroke="#2f2f2f" stroke-width="2" points="234.81,-174.87 237.48,-165.16 229.34,-171.08 234.81,-174.87"/>
<text xml:space="preserve" text-anchor="middle" x="252.06" y="-187.69" font-family="Helvetica,sans-Serif" font-size="15.00" fill="#555555">blocked</text>
</g>
<!-- post -->
<g id="node13" class="node">
<title>post</title>
<polygon fill="#4caf50" stroke="#3c9140" stroke-width="1.8" points="186.93,-66.54 0,-66.54 0,0 186.93,0 186.93,-66.54"/>
<text xml:space="preserve" text-anchor="middle" x="93.47" y="-37.92" font-family="Helvetica,sans-Serif" font-weight="bold" font-size="18.00" fill="white">PostToolUse</text>
<text xml:space="preserve" text-anchor="middle" x="93.47" y="-16.17" font-family="Helvetica,sans-Serif" font-weight="bold" font-size="18.00" fill="white">post&#45;tool&#45;use.js</text>
</g>
<!-- tool&#45;&gt;post -->
<g id="edge14" class="edge">
<title>tool&#45;&gt;post</title>
<path fill="none" stroke="#2f2f2f" stroke-width="2" d="M93.47,-110.66C93.47,-101.21 93.47,-90.15 93.47,-79.43"/>
<polygon fill="#2f2f2f" stroke="#2f2f2f" stroke-width="2" points="96.79,-79.64 93.47,-70.14 90.14,-79.64 96.79,-79.64"/>
</g>
</g>
</svg>
